<?xml version="1.0" standalone="no"?>
<!DOCTYPE svg PUBLIC "-//W3C//DTD SVG 20010904//EN"
 "http://www.w3.org/TR/2001/REC-SVG-20010904/DTD/svg10.dtd">
<svg version="1.0" xmlns="http://www.w3.org/2000/svg"
 width="1169.000000pt" height="648.000000pt" viewBox="0 0 1169.000000 648.000000"
 preserveAspectRatio="xMidYMid meet">
<metadata>
Created by potrace 1.16, written by Peter Selinger 2001-2019
</metadata>
<g transform="translate(0.000000,648.000000) scale(0.100000,-0.100000)"
fill="#000000" stroke="none">
<path d="M0 3240 l0 -3240 5845 0 5845 0 0 3240 0 3240 -5845 0 -5845 0 0
-3240z m3332 1518 l1 -43 4 43 4 42 2530 0 c2016 0 2529 -3 2530 -12 0 -10 2
-10 6 0 2 6 11 12 18 12 12 0 14 -51 15 -291 0 -189 -4 -288 -10 -284 -6 3
-10 2 -10 -4 0 -5 6 -12 13 -14 6 -3 -1146 -6 -2560 -6 -1762 0 -2573 3 -2573
10 0 6 5 7 11 3 8 -5 8 -1 0 14 -7 14 -11 115 -11 296 0 239 2 276 15 276 11
0 16 -12 17 -42z m-649 -962 c19 -27 22 -45 24 -138 1 -59 7 -117 13 -127 16
-31 13 -207 -5 -241 -29 -57 -48 -60 -335 -60 l-260 0 0 305 0 305 233 2 c127
2 249 -1 270 -6 24 -6 45 -19 60 -40z m1505 32 c2 -10 -44 -73 -113 -153 -101
-119 -114 -139 -103 -153 7 -10 59 -72 115 -139 57 -66 103 -128 103 -137 0
-13 -12 -16 -63 -16 l-64 0 -88 105 c-48 58 -90 105 -94 104 -3 0 -46 -47 -94
-105 l-89 -104 -59 0 c-50 0 -59 3 -59 18 0 9 51 78 114 152 110 131 114 136
97 155 -120 140 -211 256 -211 269 0 13 11 16 63 15 l62 0 80 -95 c44 -53 82
-100 83 -105 7 -19 23 -6 107 95 81 99 89 105 128 109 65 6 82 3 85 -15z
m3469 12 c72 0 76 -1 109 -34 29 -29 34 -41 34 -79 0 -25 -3 -48 -7 -50 -5 -2
-29 -2 -55 1 -39 3 -47 8 -50 25 -3 22 -6 22 -193 22 l-190 0 0 -65 0 -65 218
-5 219 -5 29 -33 c28 -31 29 -35 29 -138 0 -115 -10 -143 -61 -170 -42 -21
-447 -20 -489 1 -37 19 -60 63 -60 115 l0 40 54 0 c52 0 55 -1 58 -27 l3 -28
190 0 190 0 3 68 3 67 -206 0 c-227 0 -252 5 -280 60 -20 39 -21 200 -1 239
26 50 41 56 170 62 67 3 141 5 165 3 24 -2 77 -4 118 -4z m1161 -52 l3 -58
-126 0 -125 0 0 -250 0 -250 -55 0 -55 0 0 250 0 250 -125 0 -125 0 0 55 0 55
273 3 c149 1 286 3 302 2 29 0 30 -1 33 -57z m675 53 c11 -1 8 -99 -4 -107 -6
-3 -107 -6 -225 -5 l-214 1 0 -65 c0 -76 -24 -68 205 -69 l150 -1 3 -57 3 -58
-186 0 -185 0 0 -70 0 -71 198 1 c108 0 209 1 224 0 25 0 26 -3 30 -55 l3 -55
-282 0 -283 0 0 303 c0 167 2 306 5 309 4 4 516 3 558 -1z m494 0 l173 -1 31
-28 c26 -23 33 -38 37 -80 l5 -52 -57 0 c-53 0 -56 1 -56 25 l0 25 -195 0
-195 0 0 -64 c0 -42 4 -66 13 -69 6 -2 91 -2 187 1 197 5 234 -1 275 -49 23
-28 25 -38 25 -129 0 -116 -8 -143 -52 -170 -30 -18 -51 -20 -260 -20 l-227 0
-36 35 c-31 31 -35 42 -35 85 l0 50 55 0 c52 0 55 -1 55 -25 0 -33 26 -37 225
-33 l160 3 0 65 0 65 -219 5 -218 5 -29 35 c-28 33 -29 37 -29 145 0 89 4 114
18 131 28 35 73 53 127 50 28 -2 128 -4 222 -5z m-9168 -16 c54 -27 61 -62 61
-284 l0 -201 35 0 35 0 0 -55 0 -55 -304 0 c-296 0 -304 1 -331 22 -49 38 -55
69 -55 283 0 214 6 245 55 283 27 21 37 22 252 22 177 0 230 -3 252 -15z m819
-19 l37 -34 3 -271 3 -271 -60 0 -61 0 0 105 0 105 -190 0 -190 0 0 -105 0
-105 -60 0 -60 0 0 256 c0 372 -16 353 313 354 l227 0 38 -34z m1788 19 c48
-33 54 -68 54 -300 l0 -217 -39 -39 -39 -39 -221 0 c-327 0 -311 -16 -311 308
l0 234 34 34 34 34 234 0 c189 0 238 -3 254 -15z m1544 -235 l0 -250 250 0
250 0 0 -55 0 -55 -305 0 -305 0 0 305 0 305 55 0 55 0 0 -250z m1160 195 l0
-55 -225 0 -225 0 0 -70 0 -70 180 0 180 0 0 -55 0 -55 -180 0 -180 0 0 -70 0
-70 225 0 225 0 0 -55 0 -55 -285 0 -285 0 0 305 0 305 285 0 285 0 0 -55z
m710 0 l0 -55 -125 0 -125 0 0 -250 0 -250 -55 0 -55 0 -2 248 -3 247 -127 3
-128 3 0 54 0 55 310 0 310 0 0 -55z m4110 0 l0 -55 -125 0 -125 0 0 -250 0
-250 -55 0 -55 0 0 250 0 250 -124 0 c-138 0 -136 -1 -136 78 l0 32 310 0 310
0 0 -55z m-3890 -30 l0 -75 -55 0 -55 0 0 75 0 75 55 0 55 0 0 -75z m-2632
-498 c-4 -65 -6 -71 -41 -103 -61 -56 -67 -50 -67 70 l0 105 43 3 c68 5 70 4
65 -75z m2 -427 c0 -109 -2 -130 -15 -130 -13 0 -15 21 -15 130 0 109 2 130
15 130 13 0 15 -21 15 -130z m1225 0 c0 -111 -2 -125 -17 -128 -16 -3 -18 8
-18 128 0 120 2 131 18 128 15 -3 17 -17 17 -128z m1825 0 c0 -109 -2 -130
-15 -130 -13 0 -15 21 -15 130 0 109 2 130 15 130 13 0 15 -21 15 -130z
m-4930 28 c0 -51 3 -68 10 -58 5 8 10 41 10 73 0 44 3 57 15 57 12 0 15 -16
17 -72 l2 -73 3 73 c3 58 7 72 20 72 14 0 15 -11 10 -82 -6 -86 -13 -118 -27
-118 -4 0 -11 11 -14 25 -4 14 -11 25 -16 25 -6 0 -10 -11 -10 -25 0 -46 -28
-28 -39 25 -16 77 -14 150 4 150 12 0 15 -15 15 -72z m280 57 c0 -10 -10 -15
-30 -15 -27 0 -30 -3 -30 -30 0 -27 3 -30 30 -30 20 0 30 -5 30 -15 0 -10 -10
-15 -30 -15 -25 0 -30 -4 -30 -25 0 -21 5 -25 30 -25 20 0 30 -5 30 -15 0 -11
-12 -15 -45 -15 l-45 0 0 100 0 100 45 0 c33 0 45 -4 45 -15z m200 0 c0 -8 5
-15 10 -15 15 0 12 -57 -2 -63 -10 -4 -10 -7 0 -18 16 -17 15 -49 -2 -71 -9
-13 -27 -18 -60 -18 l-46 0 0 100 0 100 50 0 c38 0 50 -4 50 -15z m399 -27
c12 -45 18 -71 28 -125 5 -29 3 -33 -16 -33 -16 0 -21 6 -21 25 0 20 -5 25
-25 25 -20 0 -25 -5 -25 -25 0 -16 -6 -25 -16 -25 -14 0 -15 9 -9 63 11 100
24 137 50 137 18 0 25 -9 34 -42z m221 23 c13 -25 13 -71 0 -71 -6 0 -9 -6 -7
-12 1 -8 -12 -14 -35 -16 -37 -3 -38 -4 -38 -43 0 -28 -4 -39 -15 -39 -12 0
-15 18 -15 100 l0 100 50 0 c38 0 52 -4 60 -19z m205 -11 c4 -16 4 -43 0 -60
-6 -26 -11 -30 -41 -30 -35 0 -37 -3 -36 -52 0 -21 -4 -28 -19 -28 -17 0 -19
8 -19 100 l0 100 54 0 c52 0 55 -1 61 -30z m195 15 c0 -8 5 -15 10 -15 6 0 10
-7 10 -15 0 -8 -9 -15 -20 -15 -11 0 -20 7 -20 15 0 9 -9 15 -25 15 -21 0 -25
-5 -25 -30 0 -27 3 -30 31 -30 19 0 37 -7 45 -17 16 -21 18 -63 4 -63 -5 0
-10 -7 -10 -15 0 -22 -86 -21 -94 1 -10 27 -7 44 9 44 8 0 15 -7 15 -15 0 -9
9 -15 25 -15 20 0 25 5 25 25 0 22 -5 25 -32 25 -43 0 -61 34 -45 85 10 33 13
35 54 35 32 0 43 -4 43 -15z m803 -38 c9 -29 20 -74 23 -100 6 -39 4 -47 -10
-47 -10 0 -16 9 -16 25 0 21 -5 25 -30 25 -25 0 -30 -4 -30 -25 0 -16 -6 -25
-16 -25 -14 0 -16 8 -10 47 11 79 38 153 56 153 11 0 22 -17 33 -53z m217 38
c0 -8 5 -15 10 -15 14 0 13 -31 -2 -63 -10 -21 -20 -27 -45 -27 -32 0 -33 -2
-33 -40 0 -33 -3 -40 -20 -40 -19 0 -20 7 -20 100 l0 100 55 0 c42 0 55 -3 55
-15z m190 0 c0 -8 -4 -15 -8 -15 -10 0 -10 -126 1 -136 18 -18 6 -34 -28 -34
-24 0 -35 5 -35 15 0 8 5 15 10 15 6 0 10 30 10 70 0 40 -4 70 -10 70 -5 0
-10 7 -10 15 0 10 11 15 35 15 24 0 35 -5 35 -15z m770 -17 l13 -33 10 33 c7
24 16 32 34 32 24 0 24 0 21 -102 -3 -89 -5 -103 -20 -106 -16 -3 -18 6 -20
75 -2 76 -2 77 -5 16 -3 -47 -8 -63 -18 -63 -10 0 -16 11 -17 33 -1 26 -2 24
-7 -13 -4 -31 -11 -45 -21 -45 -12 0 -16 19 -18 103 -3 95 -1 102 17 102 12 0
23 -11 31 -32z m264 -2 c33 -70 7 -175 -44 -176 -57 0 -89 101 -55 174 15 31
22 36 50 36 27 0 35 -6 49 -34z m202 16 c14 -22 16 -149 3 -174 -7 -14 -22
-18 -59 -18 l-50 0 0 105 0 105 48 0 c35 0 50 -5 58 -18z m194 3 c0 -8 -4 -15
-10 -15 -6 0 -10 -30 -10 -70 0 -40 4 -70 10 -70 6 0 10 -7 10 -15 0 -8 -4
-15 -9 -15 -5 0 -23 -3 -40 -6 -27 -6 -31 -4 -31 15 0 12 6 21 15 21 12 0 15
14 15 70 0 56 -3 70 -15 70 -8 0 -15 7 -15 15 0 11 11 15 40 15 29 0 40 -4 40
-15z m150 -69 l0 -85 38 -3 c53 -4 41 -22 -18 -26 l-50 -3 0 100 c0 83 3 101
15 101 12 0 15 -16 15 -84z m260 69 c0 -9 -9 -15 -25 -15 -21 0 -25 -5 -25
-30 0 -25 4 -30 25 -30 16 0 25 -6 25 -15 0 -9 -9 -15 -25 -15 -20 0 -25 -5
-25 -25 0 -20 5 -25 25 -25 16 0 25 -6 25 -15 0 -11 -12 -15 -44 -15 l-45 0 1
100 0 100 44 0 c32 0 44 -4 44 -15z m800 1 c0 -8 5 -16 11 -18 21 -7 24 -98 4
-134 -16 -31 -23 -34 -62 -34 l-43 0 0 100 0 100 45 0 c32 0 45 -4 45 -14z
m220 -1 c0 -10 -10 -15 -29 -15 -24 0 -28 -4 -27 -27 1 -23 6 -29 29 -31 36
-4 36 -32 -1 -32 -22 0 -28 -5 -30 -25 -1 -22 2 -25 28 -25 20 0 30 -5 30 -15
0 -11 -12 -15 -45 -15 l-45 0 0 100 0 100 45 0 c33 0 45 -4 45 -15z m210 -4
c14 -27 13 -41 -5 -41 -8 0 -15 7 -15 15 0 10 -10 15 -30 15 -27 0 -30 -3 -30
-30 0 -28 3 -30 35 -30 42 0 60 -27 50 -76 -6 -33 -7 -34 -54 -34 -35 0 -51 4
-55 16 -10 27 -7 44 9 44 8 0 15 -7 15 -15 0 -10 10 -15 30 -15 25 0 30 4 30
25 0 22 -4 25 -35 25 -43 0 -61 30 -51 84 7 35 8 36 51 36 34 0 47 -5 55 -19z
m130 -28 l0 -47 20 21 c10 12 22 33 26 47 3 14 13 26 21 26 12 0 13 -7 8 -27
-3 -15 -11 -31 -17 -35 -6 -3 -11 -21 -11 -38 0 -17 5 -35 11 -38 6 -4 14 -20
17 -35 6 -21 4 -27 -9 -27 -8 0 -18 11 -22 25 -3 14 -10 25 -15 25 -5 0 -9 7
-9 15 0 8 -4 15 -10 15 -5 0 -10 -18 -10 -40 0 -33 -3 -40 -20 -40 -19 0 -20
7 -20 100 0 93 1 100 20 100 17 0 20 -7 20 -47z m290 32 c0 -8 -9 -15 -19 -15
-25 0 -29 -13 -26 -97 3 -66 1 -73 -16 -73 -17 0 -19 8 -19 85 0 78 -2 85 -20
85 -11 0 -20 7 -20 15 0 12 13 15 60 15 47 0 60 -3 60 -15z m170 1 c0 -8 5
-16 12 -18 6 -2 13 -29 16 -59 3 -42 0 -59 -12 -71 -9 -9 -16 -21 -16 -27 0
-6 -13 -11 -30 -11 -16 0 -30 5 -30 11 0 6 -7 18 -16 27 -12 12 -15 29 -12 71
3 30 10 57 16 59 7 2 12 10 12 18 0 9 11 14 30 14 19 0 30 -5 30 -14z m225 -8
c10 -30 10 -48 0 -75 -6 -18 -15 -23 -41 -23 -33 0 -34 -1 -34 -40 0 -33 -3
-40 -20 -40 -19 0 -20 7 -20 100 l0 100 54 0 c47 0 55 -3 61 -22z m-4515 -488
c0 -109 -2 -130 -15 -130 -13 0 -15 21 -15 130 0 109 2 130 15 130 13 0 15
-21 15 -130z m2850 0 c0 -109 -2 -130 -15 -130 -13 0 -15 21 -15 130 0 109 2
130 15 130 13 0 15 -21 15 -130z m-582 89 c3 -8 9 -17 15 -20 5 -4 6 -12 3
-18 -10 -16 -36 -13 -36 4 0 8 -7 15 -15 15 -8 0 -15 -7 -15 -15 0 -8 -4 -15
-10 -15 -15 0 -12 -72 4 -92 16 -22 36 -23 36 -3 0 15 21 21 32 10 3 -4 1 -17
-6 -30 -9 -20 -19 -25 -46 -25 -31 0 -37 5 -52 39 -10 20 -18 48 -18 61 0 34
31 99 49 103 28 7 55 1 59 -14z m-4478 -4 c0 -10 -10 -15 -29 -15 -24 0 -28
-4 -27 -27 1 -23 6 -29 29 -31 15 -2 27 -7 27 -12 0 -5 -12 -10 -27 -12 -25
-3 -28 -7 -31 -45 -2 -29 -8 -43 -18 -43 -11 0 -14 20 -14 100 l0 100 45 0
c33 0 45 -4 45 -15z m130 -70 l0 -85 30 0 30 0 0 85 c0 69 3 85 15 85 12 0 15
-15 15 -77 0 -116 -4 -123 -56 -123 -32 0 -44 4 -44 15 0 8 -4 15 -10 15 -6 0
-10 35 -10 85 0 69 3 85 15 85 12 0 15 -16 15 -85z m232 27 l27 -57 0 58 c1
44 4 57 16 57 12 0 15 -18 15 -100 0 -82 -3 -100 -15 -100 -8 0 -15 7 -15 15
0 8 -4 15 -8 15 -5 0 -15 19 -23 43 l-14 42 -3 -57 c-2 -43 -7 -58 -17 -58
-12 0 -15 19 -15 100 0 119 12 128 52 42z m248 44 c0 -8 5 -16 12 -18 6 -2 8
-10 4 -16 -10 -17 -26 -15 -26 3 0 21 -30 19 -46 -2 -29 -39 -9 -123 30 -123
9 0 16 7 16 15 0 18 16 20 26 3 4 -6 2 -14 -4 -16 -7 -2 -12 -10 -12 -18 0 -9
-11 -14 -35 -14 -24 0 -35 5 -35 14 0 8 -6 16 -12 19 -9 2 -13 25 -13 67 0 42
4 65 13 68 6 2 12 10 12 18 0 9 11 14 35 14 24 0 35 -5 35 -14z m220 -1 c0 -8
-9 -15 -20 -15 -18 0 -20 -7 -20 -85 0 -78 -2 -85 -20 -85 -18 0 -19 5 -13 85
l6 85 -27 0 c-16 0 -26 5 -26 15 0 12 13 15 60 15 47 0 60 -3 60 -15z m180 0
c0 -8 -4 -15 -10 -15 -6 0 -10 -30 -10 -69 0 -52 4 -70 15 -75 29 -11 15 -26
-25 -26 -29 0 -40 4 -40 15 0 8 5 15 10 15 6 0 10 30 10 70 0 40 -4 70 -10 70
-5 0 -10 7 -10 15 0 10 11 15 35 15 24 0 35 -5 35 -15z m200 1 c0 -8 6 -16 13
-18 8 -3 12 -26 12 -68 0 -42 -4 -65 -12 -67 -7 -3 -13 -11 -13 -19 0 -9 -11
-14 -30 -14 -19 0 -30 5 -30 14 0 8 -6 16 -12 19 -9 2 -13 25 -13 67 0 42 4
65 13 68 6 2 12 10 12 18 0 9 11 14 30 14 19 0 30 -5 30 -14z m159 -28 c7 -22
19 -48 27 -55 12 -12 14 -7 14 41 0 43 3 56 15 56 12 0 15 -18 15 -100 0 -82
-3 -100 -15 -100 -8 0 -15 7 -15 15 0 8 -4 15 -8 15 -5 0 -14 18 -21 40 -17
56 -31 50 -31 -15 0 -42 -3 -55 -15 -55 -12 0 -15 18 -15 100 0 90 2 100 18
100 13 0 23 -12 31 -42z m252 -5 c7 -26 12 -57 11 -67 0 -11 2 -25 6 -31 13
-19 7 -50 -11 -53 -13 -3 -17 3 -17 27 0 26 -4 31 -25 31 -21 0 -25 -5 -25
-30 0 -21 -5 -30 -16 -30 -14 0 -16 8 -10 48 3 26 12 71 18 100 10 43 16 52
34 52 17 0 24 -10 35 -47z m155 -25 c-1 -40 0 -79 2 -85 2 -7 19 -13 38 -13
24 0 34 -5 34 -15 0 -11 -13 -15 -54 -15 l-54 0 -1 100 c-1 91 0 100 17 100
17 0 19 -8 18 -72z m879 42 c4 -16 4 -43 0 -60 -6 -26 -11 -30 -41 -30 -33 0
-34 -1 -34 -41 0 -32 -3 -40 -17 -37 -14 2 -17 18 -19 101 l-2 97 53 0 c51 0
54 -1 60 -30z m195 15 c0 -10 -10 -15 -30 -15 -25 0 -30 -4 -30 -25 0 -21 5
-25 30 -25 23 0 30 -4 30 -20 0 -16 -7 -20 -30 -20 -25 0 -30 -4 -30 -25 0
-21 5 -25 30 -25 20 0 30 -5 30 -15 0 -11 -12 -15 -45 -15 l-45 0 0 100 0 100
45 0 c33 0 45 -4 45 -15z m214 -9 c6 -25 -1 -57 -16 -67 -5 -3 -2 -25 7 -48
18 -53 19 -61 2 -61 -8 0 -20 18 -27 40 -19 59 -50 49 -50 -16 0 -15 -6 -24
-15 -24 -12 0 -15 18 -15 100 l0 100 54 0 c49 0 54 -2 60 -24z m196 9 c0 -10
-10 -15 -30 -15 -25 0 -30 -4 -30 -25 0 -21 5 -25 30 -25 23 0 30 -4 30 -20 0
-16 -7 -20 -30 -20 -28 0 -30 -2 -30 -40 0 -29 -4 -40 -15 -40 -12 0 -15 18
-15 100 l0 100 45 0 c33 0 45 -4 45 -15z m190 1 c0 -8 6 -16 13 -18 8 -3 12
-26 12 -68 0 -42 -4 -65 -12 -67 -7 -3 -13 -11 -13 -19 0 -9 -11 -14 -30 -14
-19 0 -30 5 -30 14 0 8 -6 16 -12 19 -9 2 -13 25 -13 67 0 42 4 65 13 68 6 2
12 10 12 18 0 9 11 14 30 14 19 0 30 -5 30 -14z m228 -6 c10 -17 10 -27 -4
-56 -14 -29 -15 -42 -5 -73 14 -48 14 -51 -2 -51 -8 0 -20 18 -27 40 -7 22
-19 40 -27 40 -14 0 -16 -8 -15 -52 0 -21 -4 -28 -19 -28 -17 0 -19 8 -19 100
l0 100 53 0 c42 0 55 -4 65 -20z m138 -17 l8 -38 9 38 c7 30 14 37 33 37 24 0
24 -1 24 -100 0 -93 -1 -100 -20 -100 -17 0 -20 7 -22 48 -1 36 -2 39 -5 15
-5 -40 -30 -44 -36 -5 -3 19 -4 14 -6 -15 -1 -36 -4 -43 -21 -43 -19 0 -20 7
-20 100 0 100 0 100 25 100 20 0 25 -6 31 -37z m248 -10 c8 -27 18 -72 22
-100 6 -49 5 -53 -15 -53 -16 0 -21 6 -21 26 0 21 -4 25 -22 22 -15 -2 -24
-11 -26 -25 -2 -13 -10 -23 -18 -23 -13 0 -14 11 -9 68 4 37 11 71 16 77 5 5
9 19 9 32 0 18 6 23 24 23 20 0 27 -8 40 -47z m172 -13 l23 -55 1 58 c0 50 2
57 20 57 19 0 20 -7 20 -100 0 -92 -2 -100 -19 -100 -13 0 -27 16 -43 48 l-23
47 -3 -47 c-3 -40 -6 -48 -23 -48 -18 0 -19 8 -19 101 0 98 1 100 22 97 16 -2
28 -18 44 -58z m444 45 c0 -9 -9 -15 -25 -15 -21 0 -25 -5 -25 -30 0 -26 4
-30 26 -30 31 0 28 -23 -4 -28 -16 -2 -22 -10 -22 -28 0 -19 5 -24 25 -24 16
0 25 -6 25 -15 0 -11 -12 -15 -44 -15 l-43 0 3 98 c1 53 2 98 3 100 1 1 19 2
41 2 29 0 40 -4 40 -15z m824 -7 c9 -34 8 -38 -9 -38 -8 0 -15 7 -15 15 0 18
-46 21 -53 3 -8 -24 13 -48 43 -48 34 0 45 -24 35 -76 -6 -33 -8 -34 -50 -34
-32 0 -45 4 -45 14 0 8 -6 16 -12 19 -10 3 -10 7 -1 17 12 13 37 4 28 -11 -4
-5 8 -9 24 -9 26 0 31 4 31 25 0 21 -5 25 -29 25 -19 0 -34 8 -45 25 -18 27
-21 65 -6 65 6 0 10 7 10 15 0 11 12 15 44 15 37 0 45 -4 50 -22z m196 7 c0
-10 -10 -15 -31 -15 -27 0 -30 -3 -27 -27 2 -22 9 -29 31 -31 38 -5 36 -32 -3
-32 -25 0 -30 -4 -30 -25 0 -21 5 -25 30 -25 20 0 30 -5 30 -15 0 -11 -12 -15
-45 -15 l-45 0 0 100 0 100 45 0 c33 0 45 -4 45 -15z m200 0 c0 -8 5 -15 10
-15 6 0 10 -7 10 -15 0 -8 -7 -15 -15 -15 -8 0 -15 7 -15 15 0 21 -30 19 -46
-2 -29 -39 -9 -123 30 -123 9 0 16 7 16 15 0 8 7 15 15 15 8 0 15 -7 15 -15 0
-8 -4 -15 -10 -15 -5 0 -10 -7 -10 -15 0 -10 -11 -15 -35 -15 -24 0 -35 5 -35
14 0 8 -6 16 -12 19 -9 2 -13 25 -13 67 0 42 4 65 13 68 6 2 12 10 12 18 0 9
11 14 35 14 24 0 35 -5 35 -15z m140 -57 c-2 -101 -3 -98 25 -98 25 0 25 1 25
85 0 69 3 85 15 85 12 0 15 -15 15 -77 0 -116 -4 -123 -56 -123 -32 0 -44 4
-44 15 0 8 -4 15 -9 15 -5 0 -8 38 -8 85 0 77 1 85 19 85 17 0 19 -7 18 -72z
m270 57 c0 -8 5 -15 10 -15 13 0 1 -52 -13 -62 -7 -4 -5 -22 6 -50 20 -52 21
-58 5 -58 -7 0 -22 20 -33 45 -26 59 -45 59 -45 0 0 -33 -4 -45 -15 -45 -12 0
-15 18 -15 100 l0 100 50 0 c38 0 50 -4 50 -15z m200 0 c0 -8 -4 -15 -10 -15
-6 0 -10 -30 -10 -70 0 -40 4 -70 10 -70 6 0 10 -7 10 -15 0 -11 -11 -15 -40
-15 -42 0 -49 7 -28 28 15 15 13 135 -2 140 -6 2 -10 10 -10 18 0 10 12 14 40
14 29 0 40 -4 40 -15z m221 0 c0 -5 -9 -11 -21 -13 -18 -3 -20 -11 -20 -88 0
-68 -3 -84 -15 -84 -12 0 -15 16 -15 85 0 77 -2 85 -19 85 -22 0 -34 13 -24
24 11 11 113 2 114 -9z m119 -12 c1 -29 25 -71 36 -61 3 4 8 25 11 47 4 31 10
41 24 41 26 0 24 -29 -6 -86 -14 -26 -25 -62 -25 -80 0 -24 -5 -34 -15 -34
-11 0 -15 12 -15 44 0 28 -6 51 -16 61 -9 8 -18 33 -21 55 -5 33 -3 40 11 40
11 0 16 -9 16 -27z m-2540 -1263 l0 -860 -865 0 -865 0 0 860 0 860 865 0 865
0 0 -860z"/>
<path d="M3814 4631 c4 -6 -4 -9 -23 -6 -23 2 -28 0 -24 -11 3 -8 9 -14 15
-14 5 0 6 5 2 12 -5 8 -2 9 12 4 54 -23 76 -14 33 12 -12 8 -18 9 -15 3z"/>
<path d="M3860 4621 c5 -11 15 -23 21 -27 6 -3 3 5 -6 20 -20 30 -30 35 -15 7z"/>
<path d="M4010 4636 c0 -2 7 -7 16 -10 8 -3 12 -2 9 4 -6 10 -25 14 -25 6z"/>
<path d="M4115 4630 c-3 -5 -1 -10 4 -10 6 0 11 5 11 10 0 6 -2 10 -4 10 -3 0
-8 -4 -11 -10z"/>
<path d="M4150 4630 c0 -5 5 -10 10 -10 6 0 10 5 10 10 0 6 -4 10 -10 10 -5 0
-10 -4 -10 -10z"/>
<path d="M4245 4630 c3 -5 8 -10 11 -10 2 0 4 5 4 10 0 6 -5 10 -11 10 -5 0
-7 -4 -4 -10z"/>
<path d="M4320 4630 c-8 -5 -11 -12 -8 -16 4 -3 14 1 23 10 18 17 9 21 -15 6z"/>
<path d="M4480 4630 c0 -5 -8 -6 -17 -3 -17 6 -17 6 -1 -10 21 -22 23 -21 25
3 1 11 0 20 -3 20 -2 0 -4 -4 -4 -10z"/>
<path d="M4513 4625 c-7 -8 -9 -16 -4 -19 5 -3 12 1 15 10 8 22 4 25 -11 9z"/>
<path d="M4555 4630 c-4 -6 1 -7 11 -3 14 5 15 3 5 -15 -6 -11 -7 -23 -2 -26
13 -8 20 4 14 22 -5 12 -2 14 13 9 19 -7 19 -7 0 8 -23 18 -33 19 -41 5z"/>
<path d="M4738 4633 c12 -2 20 -9 16 -14 -3 -5 -11 -6 -17 -3 -7 4 -8 3 -4 -1
14 -16 35 -13 33 4 -2 9 -13 17 -27 18 -23 1 -23 1 -1 -4z"/>
<path d="M4795 4630 c-3 -5 -2 -10 4 -10 5 0 13 5 16 10 3 6 2 10 -4 10 -5 0
-13 -4 -16 -10z"/>
<path d="M5055 4631 c3 -5 -3 -12 -12 -14 -15 -4 -15 -5 -2 -6 9 0 22 6 29 14
10 12 9 15 -4 15 -10 0 -15 -4 -11 -9z"/>
<path d="M5300 4630 c-9 -6 -10 -10 -3 -10 6 0 15 5 18 10 8 12 4 12 -15 0z"/>
<path d="M5483 4607 c-1 -26 0 -28 7 -12 11 26 12 45 3 45 -5 0 -9 -15 -10
-33z"/>
<path d="M5610 4631 c0 -6 4 -12 8 -15 5 -3 9 1 9 9 0 8 -4 15 -9 15 -4 0 -8
-4 -8 -9z"/>
<path d="M5680 4624 c0 -8 4 -13 9 -9 5 3 12 1 16 -5 3 -5 14 -10 23 -9 12 0
11 3 -5 9 -13 5 -23 14 -23 20 0 5 -4 10 -10 10 -5 0 -10 -7 -10 -16z"/>
<path d="M5775 4630 c3 -5 8 -10 11 -10 2 0 4 5 4 10 0 6 -5 10 -11 10 -5 0
-7 -4 -4 -10z"/>
<path d="M6243 4625 c-17 -18 -16 -22 2 -22 8 0 12 4 9 9 -3 4 5 12 18 17 21
9 21 10 3 10 -11 0 -26 -6 -32 -14z"/>
<path d="M6300 4631 c0 -6 4 -13 10 -16 6 -3 7 1 4 9 -7 18 -14 21 -14 7z"/>
<path d="M6402 4624 c-7 -8 -8 -14 -3 -14 10 0 25 19 20 25 -2 1 -10 -3 -17
-11z"/>
<path d="M6717 4626 c-10 -11 -17 -12 -19 -4 -2 6 -9 9 -16 7 -8 -3 -6 -8 6
-15 14 -9 22 -8 37 2 10 8 16 16 13 19 -3 3 -13 -1 -21 -9z"/>
<path d="M6830 4621 c0 -11 4 -22 9 -25 4 -3 6 6 3 19 -5 30 -12 33 -12 6z"/>
<path d="M7066 4624 c-4 -10 -2 -22 4 -28 7 -7 11 -7 10 -1 -2 6 -2 17 -1 25
1 13 2 13 12 0 9 -12 10 -12 7 -1 -6 22 -25 24 -32 5z"/>
<path d="M7283 4625 c0 -8 3 -13 5 -10 3 3 12 -1 20 -8 13 -10 14 -9 3 11 -13
25 -28 29 -28 7z"/>
<path d="M7437 4634 c-3 -3 -3 -12 0 -20 4 -10 0 -13 -13 -8 -14 4 -16 3 -5
-4 7 -5 18 -16 23 -23 7 -12 9 -11 7 1 -3 30 1 40 19 40 14 0 15 2 2 10 -18
11 -24 12 -33 4z"/>
<path d="M7530 4631 c0 -6 4 -13 10 -16 6 -3 7 1 4 9 -7 18 -14 21 -14 7z"/>
<path d="M7596 4631 c-4 -6 -2 -11 4 -11 6 0 8 -6 4 -12 -6 -10 -4 -10 7 0 9
9 10 15 2 23 -8 8 -13 8 -17 0z"/>
<path d="M7680 4629 c0 -5 -4 -7 -10 -4 -5 3 -10 1 -10 -4 0 -17 27 -13 34 4
3 8 1 15 -4 15 -6 0 -10 -5 -10 -11z"/>
<path d="M7823 4624 c-5 -13 -7 -13 -14 -2 -7 10 -9 9 -9 -4 0 -10 3 -18 8
-18 12 0 38 20 27 21 -5 0 -1 4 10 9 18 8 18 9 2 9 -10 1 -20 -6 -24 -15z"/>
<path d="M7900 4630 c-8 -5 -11 -12 -8 -16 4 -3 14 1 23 10 18 17 9 21 -15 6z"/>
<path d="M7955 4629 c-4 -6 -4 -13 -1 -16 3 -4 6 -1 6 6 0 8 6 11 16 7 8 -3
12 -2 9 4 -8 13 -22 13 -30 -1z"/>
<path d="M8000 4629 c0 -5 5 -7 10 -4 6 3 10 8 10 11 0 2 -4 4 -10 4 -5 0 -10
-5 -10 -11z"/>
<path d="M8036 4625 c4 -8 8 -15 10 -15 2 0 4 7 4 15 0 8 -4 15 -10 15 -5 0
-7 -7 -4 -15z"/>
<path d="M3656 4621 c-3 -5 1 -11 9 -14 9 -4 12 -1 8 9 -6 16 -10 17 -17 5z"/>
<path d="M3909 4613 c-13 -16 -12 -17 4 -4 16 13 21 21 13 21 -2 0 -10 -8 -17
-17z"/>
<path d="M3950 4624 c1 -14 29 -48 35 -42 3 2 -4 15 -15 28 -11 13 -20 19 -20
14z"/>
<path d="M4860 4621 c0 -5 -10 -7 -22 -5 -13 2 -18 2 -12 -1 7 -3 11 -14 9
-23 -1 -9 0 -11 2 -4 4 11 17 16 35 13 4 0 5 6 2 14 -7 17 -14 20 -14 6z"/>
<path d="M4915 4620 c3 -5 12 -7 20 -3 21 7 19 13 -6 13 -11 0 -18 -4 -14 -10z"/>
<path d="M5174 4609 c0 -11 4 -15 9 -10 5 5 17 7 26 4 20 -8 12 1 -14 15 -17
9 -21 7 -21 -9z"/>
<path d="M5961 4627 c2 -1 15 -11 28 -22 l24 -20 -14 23 c-8 12 -20 22 -28 22
-8 0 -12 -1 -10 -3z"/>
<path d="M6036 4622 c-3 -5 1 -9 9 -9 8 0 12 4 9 9 -3 4 -7 8 -9 8 -2 0 -6 -4
-9 -8z"/>
<path d="M6980 4619 c0 -5 5 -7 10 -4 6 3 10 8 10 11 0 2 -4 4 -10 4 -5 0 -10
-5 -10 -11z"/>
<path d="M7226 4621 c-6 -10 24 -25 32 -16 3 3 0 5 -7 5 -7 0 -9 5 -6 10 3 6
2 10 -4 10 -5 0 -12 -4 -15 -9z"/>
<path d="M7340 4620 c-13 -8 -12 -10 3 -10 9 0 17 5 17 10 0 12 -1 12 -20 0z"/>
<path d="M7636 4613 c-6 -14 -5 -15 5 -6 7 7 10 15 7 18 -3 3 -9 -2 -12 -12z"/>
<path d="M3700 4610 c-12 -7 -10 -9 7 -7 12 0 19 5 17 9 -6 10 -6 10 -24 -2z"/>
<path d="M4275 4610 c3 -5 11 -10 16 -10 6 0 7 5 4 10 -3 6 -11 10 -16 10 -6
0 -7 -4 -4 -10z"/>
<path d="M4365 4610 c3 -5 1 -10 -5 -10 -6 0 -8 -4 -5 -10 10 -16 21 -11 22
10 1 11 -3 20 -8 20 -6 0 -7 -4 -4 -10z"/>
<path d="M4405 4607 c-18 -14 -14 -37 8 -37 7 0 6 4 -3 10 -13 8 -12 11 5 24
11 9 17 16 14 16 -3 0 -13 -6 -24 -13z"/>
<path d="M5076 4612 c-3 -6 5 -13 19 -16 17 -4 23 -11 19 -24 -5 -13 -4 -14 4
-3 10 14 5 47 -6 37 -3 -3 -11 -1 -18 5 -7 6 -14 6 -18 1z"/>
<path d="M5260 4616 c0 -2 7 -7 16 -10 8 -3 12 -2 9 4 -6 10 -25 14 -25 6z"/>
<path d="M5317 4613 c-10 -9 -9 -23 1 -23 5 0 9 7 9 15 0 17 -1 18 -10 8z"/>
<path d="M5510 4610 c0 -5 5 -10 11 -10 5 0 7 5 4 10 -3 6 -8 10 -11 10 -2 0
-4 -4 -4 -10z"/>
<path d="M5565 4610 c3 -5 8 -10 11 -10 2 0 4 5 4 10 0 6 -5 10 -11 10 -5 0
-7 -4 -4 -10z"/>
<path d="M5827 4599 c4 -15 8 -16 23 -6 22 13 17 26 -9 24 -12 -1 -17 -7 -14
-18z"/>
<path d="M6200 4610 c-9 -6 -10 -10 -3 -10 6 0 15 5 18 10 8 12 4 12 -15 0z"/>
<path d="M6276 4612 c-3 -6 0 -13 6 -15 10 -4 10 -8 2 -14 -9 -6 -8 -11 2 -21
11 -10 13 -7 10 18 -4 35 -11 46 -20 32z"/>
<path d="M6525 4611 c-2 -5 4 -11 15 -14 11 -3 20 -2 20 3 0 12 -28 21 -35 11z"/>
<path d="M6760 4610 c-9 -6 -10 -10 -3 -10 6 0 15 5 18 10 8 12 4 12 -15 0z"/>
<path d="M6796 4612 c-3 -5 1 -9 9 -9 8 0 12 4 9 9 -3 4 -7 8 -9 8 -2 0 -6 -4
-9 -8z"/>
<path d="M7020 4611 c0 -5 7 -11 14 -14 10 -4 13 -1 9 9 -6 15 -23 19 -23 5z"/>
<path d="M7560 4610 c0 -5 5 -10 11 -10 5 0 7 5 4 10 -3 6 -8 10 -11 10 -2 0
-4 -4 -4 -10z"/>
<path d="M7704 4608 c-5 -8 3 -12 18 -9 4 0 5 -7 2 -17 -5 -16 -5 -16 9 1 8 9
20 17 27 17 7 0 10 3 7 7 -10 9 -58 10 -63 1z"/>
<path d="M7920 4611 c0 -6 4 -13 10 -16 6 -3 7 1 4 9 -7 18 -14 21 -14 7z"/>
<path d="M4027 4591 c-4 -17 -3 -21 5 -13 5 5 8 16 6 23 -3 8 -7 3 -11 -10z"/>
<path d="M6648 4603 c6 -2 18 -2 25 0 6 3 1 5 -13 5 -14 0 -19 -2 -12 -5z"/>
<path d="M7498 4599 c-14 -6 -29 -17 -32 -25 -7 -18 -1 -18 19 2 11 11 19 13
28 6 10 -8 13 -6 13 9 0 10 0 19 -1 18 0 0 -12 -5 -27 -10z"/>
<path d="M8063 4594 c-3 -8 -2 -19 3 -24 5 -5 9 1 9 16 0 28 -3 30 -12 8z"/>
<path d="M3620 4585 c-7 -8 -9 -15 -6 -15 4 0 14 7 22 15 9 8 11 15 6 15 -5 0
-15 -7 -22 -15z"/>
<path d="M4442 4594 c3 -5 -5 -19 -18 -31 -22 -21 -24 -22 -34 -5 -11 16 -11
16 -6 0 3 -10 -2 -22 -12 -27 -9 -6 -12 -11 -6 -11 5 0 16 6 23 13 12 10 13 8
7 -8 -4 -11 -4 -15 1 -10 4 6 21 24 36 41 21 23 25 34 16 39 -7 5 -10 4 -7 -1z"/>
<path d="M4790 4596 c0 -2 7 -7 16 -10 8 -3 12 -2 9 4 -6 10 -25 14 -25 6z"/>
<path d="M6023 4585 c0 -8 4 -12 9 -9 5 3 6 10 3 15 -9 13 -12 11 -12 -6z"/>
<path d="M7144 4582 c-9 -14 -8 -18 6 -18 11 0 15 6 12 18 -2 10 -5 18 -6 18
-1 0 -6 -8 -12 -18z"/>
<path d="M7282 4584 c-7 -8 -8 -14 -3 -14 10 0 25 19 20 25 -2 1 -10 -3 -17
-11z"/>
<path d="M3780 4580 c0 -6 4 -9 9 -6 5 4 12 1 14 -4 3 -6 4 -5 3 2 -3 15 -26
23 -26 8z"/>
<path d="M5800 4581 c0 -5 7 -12 16 -15 14 -5 15 -4 4 9 -14 17 -20 19 -20 6z"/>
<path d="M6178 4583 c7 -3 16 -2 19 1 4 3 -2 6 -13 5 -11 0 -14 -3 -6 -6z"/>
<path d="M6667 4583 c-10 -9 -9 -23 1 -23 5 0 9 7 9 15 0 17 -1 18 -10 8z"/>
<path d="M7306 4575 c-3 -8 -1 -15 4 -15 6 0 10 7 10 15 0 8 -2 15 -4 15 -2 0
-6 -7 -10 -15z"/>
<path d="M4595 4570 c-3 -5 -1 -10 4 -10 6 0 11 5 11 10 0 6 -2 10 -4 10 -3 0
-8 -4 -11 -10z"/>
<path d="M4791 4564 c0 -11 3 -14 6 -6 3 7 2 16 -1 19 -3 4 -6 -2 -5 -13z"/>
<path d="M6579 4566 c7 -8 11 -19 8 -23 -2 -4 -2 -15 2 -24 5 -14 8 -15 19 -3
10 11 10 14 -2 14 -9 0 -12 7 -9 19 3 11 -2 21 -13 25 -14 5 -15 4 -5 -8z"/>
<path d="M6850 4569 c0 -5 5 -7 10 -4 6 3 10 8 10 11 0 2 -4 4 -10 4 -5 0 -10
-5 -10 -11z"/>
<path d="M7059 4563 c-13 -16 -12 -17 4 -4 16 13 21 21 13 21 -2 0 -10 -8 -17
-17z"/>
<path d="M7927 4573 c-10 -9 -9 -23 1 -23 5 0 9 7 9 15 0 17 -1 18 -10 8z"/>
<path d="M4940 4566 c0 -2 7 -7 16 -10 8 -3 12 -2 9 4 -6 10 -25 14 -25 6z"/>
<path d="M7497 4563 c-3 -5 -1 -17 4 -28 6 -17 7 -16 6 8 -1 28 -3 32 -10 20z"/>
<path d="M7888 4563 c7 -3 16 -2 19 1 4 3 -2 6 -13 5 -11 0 -14 -3 -6 -6z"/>
<path d="M4080 4545 c0 -8 4 -15 10 -15 5 0 7 7 4 15 -4 8 -8 15 -10 15 -2 0
-4 -7 -4 -15z"/>
<path d="M4504 4547 c-8 -9 -7 -16 2 -24 9 -9 13 -6 17 13 5 26 -2 30 -19 11z"/>
<path d="M5036 4545 c-9 -26 -7 -32 5 -12 6 10 9 21 6 23 -2 3 -7 -2 -11 -11z"/>
<path d="M5548 4553 c7 -3 16 -2 19 1 4 3 -2 6 -13 5 -11 0 -14 -3 -6 -6z"/>
<path d="M5953 4554 c3 -4 2 -14 -3 -24 -6 -11 -5 -17 3 -17 7 0 13 11 13 24
1 13 -3 23 -9 23 -6 0 -7 -3 -4 -6z"/>
<path d="M6400 4549 c0 -5 5 -7 10 -4 6 3 10 8 10 11 0 2 -4 4 -10 4 -5 0 -10
-5 -10 -11z"/>
<path d="M6966 4551 c-3 -5 1 -14 9 -21 10 -9 15 -9 15 -1 0 6 -5 11 -11 11
-5 0 -7 5 -4 10 3 6 4 10 1 10 -3 0 -7 -4 -10 -9z"/>
<path d="M7282 4540 c0 -14 2 -19 5 -12 2 6 2 18 0 25 -3 6 -5 1 -5 -13z"/>
<path d="M7687 4546 c-3 -8 2 -20 11 -27 14 -11 15 -11 5 0 -6 7 -9 20 -6 27
3 8 3 14 0 14 -3 0 -7 -6 -10 -14z"/>
<path d="M7771 4546 c-9 -11 -7 -15 7 -18 12 -4 18 1 18 13 0 22 -9 24 -25 5z"/>
<path d="M7995 4549 c-4 -6 -4 -13 -1 -16 3 -4 6 -1 6 6 0 7 5 9 12 5 7 -4 8
-3 4 4 -9 15 -13 15 -21 1z"/>
<path d="M4316 4535 c4 -8 8 -15 10 -15 2 0 4 7 4 15 0 8 -4 15 -10 15 -5 0
-7 -7 -4 -15z"/>
<path d="M4616 4541 c-3 -5 1 -11 9 -14 9 -4 12 -1 8 9 -6 16 -10 17 -17 5z"/>
<path d="M6043 4535 c-3 -9 -3 -18 -1 -21 3 -3 8 4 11 16 6 23 -1 27 -10 5z"/>
<path d="M7861 4534 c0 -11 3 -14 6 -6 3 7 2 16 -1 19 -3 4 -6 -2 -5 -13z"/>
<path d="M3680 4534 c0 -2 10 -8 21 -15 17 -8 20 -8 17 2 -4 11 -38 23 -38 13z"/>
<path d="M4792 4520 c0 -14 2 -19 5 -12 2 6 2 18 0 25 -3 6 -5 1 -5 -13z"/>
<path d="M5258 4533 c6 -2 18 -2 25 0 6 3 1 5 -13 5 -14 0 -19 -2 -12 -5z"/>
<path d="M6416 4523 c-6 -14 -5 -15 5 -6 7 7 10 15 7 18 -3 3 -9 -2 -12 -12z"/>
<path d="M3618 4515 c10 -21 5 -48 -6 -41 -4 2 -7 -11 -8 -30 0 -19 3 -34 7
-34 4 0 6 11 5 25 -5 42 19 51 50 18 15 -15 24 -21 19 -13 -4 8 -16 24 -27 35
-10 11 -26 29 -34 40 l-15 20 9 -20z"/>
<path d="M4542 4508 c7 -15 19 -30 27 -33 22 -8 19 -2 -11 30 l-28 30 12 -27z"/>
<path d="M5733 4523 c-15 -5 -17 -23 -4 -23 5 0 11 7 15 15 3 8 4 15 3 14 -1
0 -8 -3 -14 -6z"/>
<path d="M7881 4514 c0 -11 3 -14 6 -6 3 7 2 16 -1 19 -3 4 -6 -2 -5 -13z"/>
<path d="M7923 4499 c-1 -16 1 -29 5 -29 10 0 14 48 4 54 -4 2 -8 -9 -9 -25z"/>
<path d="M8040 4515 c0 -8 5 -14 12 -12 7 1 12 -3 13 -10 0 -19 11 -23 12 -4
1 9 -7 23 -18 29 -16 10 -19 9 -19 -3z"/>
<path d="M4575 4510 c3 -5 8 -10 11 -10 2 0 4 5 4 10 0 6 -5 10 -11 10 -5 0
-7 -4 -4 -10z"/>
<path d="M7115 4509 c-4 -6 -5 -12 -2 -15 2 -3 7 2 10 11 7 17 1 20 -8 4z"/>
<path d="M5615 4500 c3 -5 8 -10 11 -10 2 0 4 5 4 10 0 6 -5 10 -11 10 -5 0
-7 -4 -4 -10z"/>
<path d="M3750 4494 c0 -13 18 -39 24 -34 2 3 -2 14 -10 24 -8 11 -14 16 -14
10z"/>
<path d="M4200 4491 c0 -6 4 -13 10 -16 6 -3 7 1 4 9 -7 18 -14 21 -14 7z"/>
<path d="M5286 4480 c-18 -18 -18 -19 3 -13 12 3 21 12 21 19 0 17 -1 17 -24
-6z"/>
<path d="M5824 4480 c0 -13 4 -16 10 -10 7 7 7 13 0 20 -6 6 -10 3 -10 -10z"/>
<path d="M7780 4487 c-8 -7 -16 -19 -18 -27 -2 -8 0 -12 3 -8 4 4 16 3 25 -2
13 -7 20 -6 24 6 9 24 7 27 -9 14 -9 -7 -19 -10 -22 -6 -4 4 -1 11 7 16 8 5
12 11 10 14 -3 2 -12 -1 -20 -7z"/>
<path d="M4370 4481 c0 -6 5 -13 12 -17 7 -5 8 -3 3 6 -6 10 -4 12 9 7 10 -4
15 -3 11 3 -8 13 -35 13 -35 1z"/>
<path d="M4500 4480 c0 -5 9 -10 21 -10 11 0 17 5 14 10 -3 6 -13 10 -21 10
-8 0 -14 -4 -14 -10z"/>
<path d="M4636 4482 c2 -2 -3 -14 -11 -26 -17 -23 -20 -50 -5 -41 6 3 10 15
10 25 0 10 6 20 13 23 8 3 9 7 1 15 -6 5 -9 7 -8 4z"/>
<path d="M4797 4469 c4 -13 8 -18 11 -10 2 7 -1 18 -6 23 -8 8 -9 4 -5 -13z"/>
<path d="M6975 4479 c-4 -6 -5 -12 -2 -15 2 -3 7 2 10 11 7 17 1 20 -8 4z"/>
<path d="M7496 4482 c-2 -4 -1 -14 4 -22 7 -11 9 -9 7 8 -1 24 -3 26 -11 14z"/>
<path d="M7645 4473 c2 -10 4 -25 5 -33 1 -10 4 -9 9 5 9 22 4 45 -9 45 -5 0
-7 -8 -5 -17z"/>
<path d="M7870 4481 c0 -6 4 -13 10 -16 6 -3 7 1 4 9 -7 18 -14 21 -14 7z"/>
<path d="M7897 4472 c2 -10 10 -19 18 -19 10 0 11 4 2 19 -7 10 -15 18 -18 18
-4 0 -5 -8 -2 -18z"/>
<path d="M7951 4474 c0 -11 3 -14 6 -6 3 7 2 16 -1 19 -3 4 -6 -2 -5 -13z"/>
<path d="M3686 4467 c3 -10 9 -15 12 -12 3 3 0 11 -7 18 -10 9 -11 8 -5 -6z"/>
<path d="M3984 4469 c-3 -6 -2 -15 3 -20 5 -5 9 -1 9 11 0 23 -2 24 -12 9z"/>
<path d="M4250 4476 c0 -2 9 -6 20 -9 11 -3 18 -1 14 4 -5 9 -34 13 -34 5z"/>
<path d="M4766 4465 c4 -8 10 -12 15 -9 11 6 2 24 -11 24 -5 0 -7 -7 -4 -15z"/>
<path d="M5040 4469 c0 -5 5 -7 10 -4 6 3 10 8 10 11 0 2 -4 4 -10 4 -5 0 -10
-5 -10 -11z"/>
<path d="M5873 4435 c0 -27 2 -38 4 -22 2 15 2 37 0 50 -2 12 -4 0 -4 -28z"/>
<path d="M6479 4463 c-12 -16 -12 -17 2 -5 9 7 25 9 34 5 13 -4 16 -3 11 5
-10 17 -31 15 -47 -5z"/>
<path d="M6557 4467 c-3 -8 1 -14 9 -14 8 0 14 6 14 14 0 7 -4 13 -9 13 -5 0
-11 -6 -14 -13z"/>
<path d="M3805 4460 c3 -5 8 -10 11 -10 2 0 4 5 4 10 0 6 -5 10 -11 10 -5 0
-7 -4 -4 -10z"/>
<path d="M4305 4460 c-3 -5 -1 -10 4 -10 6 0 11 5 11 10 0 6 -2 10 -4 10 -3 0
-8 -4 -11 -10z"/>
<path d="M5748 4463 c-10 -2 -18 -9 -18 -14 0 -14 16 -11 30 6 7 8 11 14 9 14
-2 -1 -12 -3 -21 -6z"/>
<path d="M6020 4455 c-11 -13 -10 -14 5 -9 12 5 16 4 11 -4 -3 -6 -1 -14 5
-18 7 -4 9 -3 6 3 -4 6 0 13 8 17 8 3 15 11 15 18 0 9 -3 9 -10 -2 -8 -12 -12
-12 -18 -2 -7 10 -11 10 -22 -3z"/>
<path d="M8003 4458 c3 -9 1 -19 -6 -22 -9 -3 -9 -5 0 -5 18 -1 23 13 11 29
-8 12 -9 12 -5 -2z"/>
<path d="M4180 4455 c0 -5 5 -17 10 -25 5 -8 10 -10 10 -5 0 6 -5 17 -10 25
-5 8 -10 11 -10 5z"/>
<path d="M4210 4455 c0 -5 5 -17 10 -25 5 -8 10 -10 10 -5 0 6 -5 17 -10 25
-5 8 -10 11 -10 5z"/>
<path d="M4405 4450 c-3 -5 -1 -10 4 -10 6 0 11 5 11 10 0 6 -2 10 -4 10 -3 0
-8 -4 -11 -10z"/>
<path d="M4706 4445 c-3 -8 -1 -15 4 -15 6 0 10 7 10 15 0 8 -2 15 -4 15 -2 0
-6 -7 -10 -15z"/>
<path d="M5331 4444 c13 -16 29 -19 29 -5 0 5 -9 11 -21 14 -16 4 -18 3 -8 -9z"/>
<path d="M5610 4450 c0 -5 5 -10 11 -10 5 0 7 5 4 10 -3 6 -8 10 -11 10 -2 0
-4 -4 -4 -10z"/>
<path d="M7580 4445 c0 -8 5 -15 11 -15 6 0 17 7 25 15 14 13 13 15 -10 15
-16 0 -26 -6 -26 -15z"/>
<path d="M8422 4440 c0 -14 2 -19 5 -12 2 6 2 18 0 25 -3 6 -5 1 -5 -13z"/>
<path d="M6611 4434 c0 -11 3 -14 6 -6 3 7 2 16 -1 19 -3 4 -6 -2 -5 -13z"/>
<path d="M6960 4439 c0 -5 5 -7 10 -4 6 3 10 8 10 11 0 2 -4 4 -10 4 -5 0 -10
-5 -10 -11z"/>
<path d="M7000 4429 c7 -11 14 -19 16 -16 7 7 -7 37 -17 37 -6 0 -5 -9 1 -21z"/>
<path d="M7460 4436 c0 -8 5 -18 10 -21 6 -3 10 1 10 9 0 8 -4 18 -10 21 -5 3
-10 -1 -10 -9z"/>
<path d="M3761 4426 c-7 -8 -8 -17 -3 -20 6 -3 13 1 16 10 9 23 2 28 -13 10z"/>
<path d="M3810 4431 c0 -5 5 -13 10 -16 6 -3 10 -2 10 4 0 5 -4 13 -10 16 -5
3 -10 2 -10 -4z"/>
<path d="M4785 4430 c3 -5 8 -10 11 -10 2 0 4 5 4 10 0 6 -5 10 -11 10 -5 0
-7 -4 -4 -10z"/>
<path d="M5313 4425 c0 -8 4 -12 9 -9 5 3 6 10 3 15 -9 13 -12 11 -12 -6z"/>
<path d="M6551 4424 c0 -11 3 -14 6 -6 3 7 2 16 -1 19 -3 4 -6 -2 -5 -13z"/>
<path d="M7670 4418 c-14 -11 -19 -17 -12 -13 6 3 15 -1 18 -9 3 -9 11 -13 16
-10 6 4 5 10 -3 15 -12 8 -12 11 1 18 8 6 12 12 10 15 -3 2 -16 -4 -30 -16z"/>
<path d="M7895 4430 c-3 -5 -1 -10 4 -10 6 0 11 5 11 10 0 6 -2 10 -4 10 -3 0
-8 -4 -11 -10z"/>
<path d="M3980 4420 c0 -5 5 -10 11 -10 5 0 7 5 4 10 -3 6 -8 10 -11 10 -2 0
-4 -4 -4 -10z"/>
<path d="M7860 4426 c0 -2 8 -10 18 -17 15 -13 16 -12 3 4 -13 16 -21 21 -21
13z"/>
<path d="M7920 4415 c-11 -13 -10 -14 4 -9 9 3 16 10 16 15 0 13 -6 11 -20 -6z"/>
<path d="M4365 4404 c-10 -8 -14 -14 -8 -14 7 0 15 5 19 11 4 8 9 7 15 -2 6
-10 9 -10 9 -2 0 19 -14 22 -35 7z"/>
<path d="M4704 4405 c3 -10 -1 -15 -11 -15 -12 0 -14 -3 -6 -11 5 -5 22 -7 37
-3 25 6 27 17 5 20 -22 3 -23 5 -9 14 13 8 12 10 -4 10 -12 0 -16 -5 -12 -15z"/>
<path d="M5792 4399 c-9 -14 -19 -18 -30 -14 -14 5 -15 4 -4 -7 10 -10 16 -8
34 10 12 12 20 24 17 26 -3 3 -10 -4 -17 -15z"/>
<path d="M7716 4412 c-3 -5 1 -9 9 -9 8 0 12 4 9 9 -3 4 -7 8 -9 8 -2 0 -6 -4
-9 -8z"/>
<path d="M8065 4410 c3 -5 8 -10 11 -10 2 0 4 5 4 10 0 6 -5 10 -11 10 -5 0
-7 -4 -4 -10z"/>
<path d="M4246 4393 c10 -7 22 -13 26 -13 5 0 3 6 -4 13 -7 8 -19 14 -26 14
-11 0 -10 -4 4 -14z"/>
<path d="M4800 4395 c6 -8 18 -11 27 -8 11 4 14 2 11 -8 -5 -16 -28 -19 -45
-6 -7 5 -18 7 -25 4 -8 -4 -7 -6 5 -6 9 -1 17 -8 17 -16 0 -8 5 -15 10 -15 6
0 10 5 10 11 0 5 4 8 9 5 4 -3 16 3 26 14 19 21 18 22 -33 33 -19 4 -21 3 -12
-8z"/>
<path d="M6033 4395 c0 -8 4 -15 9 -15 4 0 8 4 8 9 0 6 -4 12 -8 15 -5 3 -9
-1 -9 -9z"/>
<path d="M6252 4395 c-13 -7 -20 -15 -15 -17 4 -3 19 1 31 7 13 7 20 15 15 17
-4 3 -19 -1 -31 -7z"/>
<path d="M7095 4400 c-3 -5 -1 -10 4 -10 6 0 11 5 11 10 0 6 -2 10 -4 10 -3 0
-8 -4 -11 -10z"/>
<path d="M3635 4390 c-3 -5 -1 -10 4 -10 6 0 11 5 11 10 0 6 -2 10 -4 10 -3 0
-8 -4 -11 -10z"/>
<path d="M5300 4383 c-14 -7 -18 -13 -10 -13 17 0 47 17 40 23 -3 2 -16 -2
-30 -10z"/>
<path d="M5680 4390 c0 -6 7 -10 15 -10 8 0 15 2 15 4 0 2 -7 6 -15 10 -8 3
-15 1 -15 -4z"/>
<path d="M5950 4390 c-13 -8 -12 -10 3 -10 9 0 17 5 17 10 0 12 -1 12 -20 0z"/>
<path d="M6360 4390 c0 -5 5 -10 11 -10 5 0 7 5 4 10 -3 6 -8 10 -11 10 -2 0
-4 -4 -4 -10z"/>
<path d="M6398 4393 c7 -3 16 -2 19 1 4 3 -2 6 -13 5 -11 0 -14 -3 -6 -6z"/>
<path d="M6968 4393 c7 -3 16 -2 19 1 4 3 -2 6 -13 5 -11 0 -14 -3 -6 -6z"/>
<path d="M7010 4391 c0 -5 7 -12 16 -15 14 -5 15 -4 4 9 -14 17 -20 19 -20 6z"/>
<path d="M7300 4390 c0 -6 7 -10 15 -10 8 0 15 2 15 4 0 2 -7 6 -15 10 -8 3
-15 1 -15 -4z"/>
<path d="M7950 4390 c8 -5 22 -9 30 -9 10 0 8 3 -5 9 -27 12 -43 12 -25 0z"/>
<path d="M4118 4383 c7 -3 16 -2 19 1 4 3 -2 6 -13 5 -11 0 -14 -3 -6 -6z"/>
<path d="M6175 4380 c-13 -6 -15 -9 -5 -9 8 0 22 4 30 9 18 12 2 12 -25 0z"/>
<path d="M6700 4386 c0 -2 9 -6 20 -9 11 -3 20 -1 20 4 0 5 -9 9 -20 9 -11 0
-20 -2 -20 -4z"/>
<path d="M6753 4371 c1 -11 6 -17 14 -14 10 4 11 9 2 19 -15 19 -18 18 -16 -5z"/>
<path d="M7210 4380 c19 -13 30 -13 30 0 0 6 -10 10 -22 10 -19 0 -20 -2 -8
-10z"/>
<path d="M7643 4382 c-9 -6 -7 -11 7 -20 12 -7 21 -8 25 -2 3 6 -2 10 -12 10
-15 0 -16 2 -3 10 8 5 11 10 5 10 -5 0 -15 -4 -22 -8z"/>
<path d="M4010 4370 c0 -5 5 -10 11 -10 5 0 7 5 4 10 -3 6 -8 10 -11 10 -2 0
-4 -4 -4 -10z"/>
<path d="M4290 4370 c0 -6 7 -10 15 -10 8 0 15 2 15 4 0 2 -7 6 -15 10 -8 3
-15 1 -15 -4z"/>
<path d="M4906 4371 c15 -14 54 -23 54 -13 0 5 -10 12 -22 16 -33 8 -44 8 -32
-3z"/>
<path d="M5025 4370 c-16 -7 -17 -9 -3 -9 9 -1 20 4 23 9 7 11 7 11 -20 0z"/>
<path d="M5115 4369 c-4 -6 -5 -12 -2 -15 2 -3 7 2 10 11 7 17 1 20 -8 4z"/>
<path d="M5448 4373 c7 -3 16 -2 19 1 4 3 -2 6 -13 5 -11 0 -14 -3 -6 -6z"/>
<path d="M5810 4369 c0 -5 5 -7 10 -4 6 3 10 8 10 11 0 2 -4 4 -10 4 -5 0 -10
-5 -10 -11z"/>
<path d="M5927 4369 c7 -7 15 -10 18 -7 3 3 -2 9 -12 12 -14 6 -15 5 -6 -5z"/>
<path d="M5977 4373 c-3 -5 8 -8 24 -9 15 -1 26 3 23 7 -6 11 -41 12 -47 2z"/>
<path d="M6518 4373 c7 -3 16 -2 19 1 4 3 -2 6 -13 5 -11 0 -14 -3 -6 -6z"/>
<path d="M6665 4370 c27 -12 43 -12 25 0 -8 5 -22 9 -30 9 -10 0 -8 -3 5 -9z"/>
<path d="M7376 4365 c-3 -8 -1 -15 4 -15 13 0 22 18 11 24 -5 3 -11 -1 -15 -9z"/>
<path d="M7548 4373 c7 -3 16 -2 19 1 4 3 -2 6 -13 5 -11 0 -14 -3 -6 -6z"/>
<path d="M3914 4362 c3 -5 0 -13 -6 -15 -8 -3 -6 -6 5 -6 19 -1 23 14 5 25 -6
4 -8 3 -4 -4z"/>
<path d="M5878 4363 c7 -3 16 -2 19 1 4 3 -2 6 -13 5 -11 0 -14 -3 -6 -6z"/>
<path d="M6270 4356 c7 -7 13 -7 20 0 6 6 3 10 -10 10 -13 0 -16 -4 -10 -10z"/>
<path d="M6990 4362 c0 -12 19 -26 26 -19 2 2 -2 10 -11 17 -9 8 -15 8 -15 2z"/>
<path d="M7330 4355 c0 -8 5 -15 10 -15 6 0 10 7 10 15 0 8 -4 15 -10 15 -5 0
-10 -7 -10 -15z"/>
<path d="M8057 4359 c7 -7 15 -10 18 -7 3 3 -2 9 -12 12 -14 6 -15 5 -6 -5z"/>
<path d="M3608 4353 c7 -3 16 -2 19 1 4 3 -2 6 -13 5 -11 0 -14 -3 -6 -6z"/>
<path d="M5063 4345 c0 -8 6 -15 13 -15 8 0 11 6 8 15 -4 8 -9 15 -13 15 -4 0
-8 -7 -8 -15z"/>
<path d="M5580 4350 c0 -5 -6 -10 -14 -10 -8 0 -17 -4 -20 -9 -3 -4 6 -6 19
-3 14 2 25 11 25 18 0 8 -2 14 -5 14 -3 0 -5 -4 -5 -10z"/>
<path d="M6440 4350 c-12 -8 -9 -10 13 -10 16 0 26 4 22 10 -8 12 -16 12 -35
0z"/>
<path d="M6705 4350 c-17 -8 -17 -9 7 -7 15 1 24 5 22 9 -3 4 -6 8 -7 7 -1 0
-11 -4 -22 -9z"/>
<path d="M4075 4340 c3 -6 1 -10 -6 -10 -7 0 -10 -3 -6 -6 3 -3 13 -2 22 4 16
8 16 9 1 15 -10 4 -15 3 -11 -3z"/>
<path d="M4530 4339 c0 -5 5 -7 10 -4 6 3 10 8 10 11 0 2 -4 4 -10 4 -5 0 -10
-5 -10 -11z"/>
<path d="M4668 4343 c6 -2 18 -2 25 0 6 3 1 5 -13 5 -14 0 -19 -2 -12 -5z"/>
<path d="M5831 4338 c-1 -20 14 -24 25 -6 4 6 3 8 -4 4 -5 -3 -13 0 -15 6 -3
8 -6 6 -6 -4z"/>
<path d="M5960 4340 c20 -13 43 -13 35 0 -3 6 -16 10 -28 10 -18 0 -19 -2 -7
-10z"/>
<path d="M6018 4338 c6 -6 18 -8 28 -6 14 3 12 5 -9 10 -19 3 -25 2 -19 -4z"/>
<path d="M6320 4340 c-12 -8 -11 -10 8 -10 12 0 22 5 22 10 0 13 -11 13 -30 0z"/>
<path d="M6383 4343 c9 -2 14 -9 11 -15 -4 -7 -2 -8 5 -4 15 10 4 26 -17 25
-15 -1 -15 -2 1 -6z"/>
<path d="M7771 4334 c0 -11 3 -14 6 -6 3 7 2 16 -1 19 -3 4 -6 -2 -5 -13z"/>
<path d="M7948 4343 c7 -3 16 -2 19 1 4 3 -2 6 -13 5 -11 0 -14 -3 -6 -6z"/>
<path d="M3728 4333 c7 -3 16 -2 19 1 4 3 -2 6 -13 5 -11 0 -14 -3 -6 -6z"/>
<path d="M4315 4330 c-3 -6 1 -7 9 -4 18 7 21 14 7 14 -6 0 -13 -4 -16 -10z"/>
<path d="M4855 4330 c3 -5 8 -10 11 -10 2 0 4 5 4 10 0 6 -5 10 -11 10 -5 0
-7 -4 -4 -10z"/>
<path d="M5125 4330 c3 -5 8 -10 11 -10 2 0 4 5 4 10 0 6 -5 10 -11 10 -5 0
-7 -4 -4 -10z"/>
<path d="M5298 4333 c7 -3 16 -2 19 1 4 3 -2 6 -13 5 -11 0 -14 -3 -6 -6z"/>
<path d="M7575 4330 c-3 -5 -1 -10 4 -10 6 0 11 5 11 10 0 6 -2 10 -4 10 -3 0
-8 -4 -11 -10z"/>
<path d="M7608 4333 c6 -2 18 -2 25 0 6 3 1 5 -13 5 -14 0 -19 -2 -12 -5z"/>
<path d="M3528 4233 c6 -2 18 -2 25 0 6 3 1 5 -13 5 -14 0 -19 -2 -12 -5z"/>
<path d="M3638 4233 c7 -3 16 -2 19 1 4 3 -2 6 -13 5 -11 0 -14 -3 -6 -6z"/>
<path d="M4088 4233 c7 -3 16 -2 19 1 4 3 -2 6 -13 5 -11 0 -14 -3 -6 -6z"/>
<path d="M4478 4233 c7 -3 16 -2 19 1 4 3 -2 6 -13 5 -11 0 -14 -3 -6 -6z"/>
<path d="M5068 4233 c6 -2 18 -2 25 0 6 3 1 5 -13 5 -14 0 -19 -2 -12 -5z"/>
<path d="M5568 4233 c7 -3 16 -2 19 1 4 3 -2 6 -13 5 -11 0 -14 -3 -6 -6z"/>
<path d="M5688 4233 c6 -2 18 -2 25 0 6 3 1 5 -13 5 -14 0 -19 -2 -12 -5z"/>
<path d="M5768 4233 c7 -3 16 -2 19 1 4 3 -2 6 -13 5 -11 0 -14 -3 -6 -6z"/>
<path d="M5848 4233 c7 -3 16 -2 19 1 4 3 -2 6 -13 5 -11 0 -14 -3 -6 -6z"/>
<path d="M6328 4233 c7 -3 16 -2 19 1 4 3 -2 6 -13 5 -11 0 -14 -3 -6 -6z"/>
<path d="M7288 4233 c7 -3 16 -2 19 1 4 3 -2 6 -13 5 -11 0 -14 -3 -6 -6z"/>
<path d="M7448 4233 c7 -3 16 -2 19 1 4 3 -2 6 -13 5 -11 0 -14 -3 -6 -6z"/>
<path d="M7768 4233 c7 -3 16 -2 19 1 4 3 -2 6 -13 5 -11 0 -14 -3 -6 -6z"/>
<path d="M7853 4233 c9 -2 23 -2 30 0 6 3 -1 5 -18 5 -16 0 -22 -2 -12 -5z"/>
<path d="M8168 4233 c7 -3 16 -2 19 1 4 3 -2 6 -13 5 -11 0 -14 -3 -6 -6z"/>
<path d="M8218 4233 c7 -3 16 -2 19 1 4 3 -2 6 -13 5 -11 0 -14 -3 -6 -6z"/>
<path d="M5320 4220 c-12 -8 -10 -10 8 -10 13 0 20 4 17 10 -7 12 -6 12 -25 0z"/>
<path d="M5448 4213 c6 -2 18 -2 25 0 6 3 1 5 -13 5 -14 0 -19 -2 -12 -5z"/>
<path d="M2237 3723 c-4 -3 -7 -33 -7 -65 l0 -58 180 0 180 0 0 65 0 65 -173
0 c-96 0 -177 -3 -180 -7z"/>
<path d="M2232 3413 l3 -68 190 0 190 0 3 68 3 67 -196 0 -196 0 3 -67z"/>
<path d="M380 3535 l0 -195 190 0 189 0 3 173 c2 94 2 182 0 195 -3 22 -4 22
-193 22 l-189 0 0 -195z"/>
<path d="M1180 3640 l0 -90 190 0 190 0 0 90 0 90 -190 0 -190 0 0 -90z"/>
<path d="M2980 3535 l0 -195 190 0 190 0 0 195 0 195 -190 0 -190 0 0 -195z"/>
<path d="M2960 2869 c0 -27 3 -30 28 -27 21 2 28 9 30 31 3 24 0 27 -27 27
-28 0 -31 -3 -31 -31z"/>
<path d="M2960 2785 c0 -21 5 -25 30 -25 25 0 30 4 30 25 0 21 -5 25 -30 25
-25 0 -30 -4 -30 -25z"/>
<path d="M3390 2861 c0 -5 -3 -16 -6 -24 -3 -8 2 -17 11 -20 12 -5 15 0 13 23
-2 26 -18 45 -18 21z"/>
<path d="M3570 2876 c0 -17 7 -25 25 -28 30 -6 39 4 30 32 -4 13 -15 20 -31
20 -19 0 -24 -5 -24 -24z"/>
<path d="M3780 2876 c0 -15 7 -26 19 -29 25 -6 31 0 31 30 0 18 -5 23 -25 23
-20 0 -25 -5 -25 -24z"/>
<path d="M4810 2861 c0 -5 -3 -16 -6 -25 -4 -12 0 -16 16 -16 16 0 20 4 16 16
-3 9 -6 20 -6 25 0 5 -4 9 -10 9 -5 0 -10 -4 -10 -9z"/>
<path d="M5000 2870 c0 -25 4 -30 25 -30 21 0 25 5 25 30 0 25 -4 30 -25 30
-21 0 -25 -5 -25 -30z"/>
<path d="M6224 2865 c-8 -46 3 -105 21 -105 18 0 29 59 21 105 -4 20 -13 35
-21 35 -8 0 -17 -15 -21 -35z"/>
<path d="M6424 2884 c3 -9 6 -20 6 -26 0 -21 45 -3 48 20 3 19 -1 22 -28 22
-25 0 -31 -3 -26 -16z"/>
<path d="M6430 2785 c0 -18 5 -25 20 -25 15 0 20 7 20 25 0 18 -5 25 -20 25
-15 0 -20 -7 -20 -25z"/>
<path d="M7850 2830 c0 -72 10 -87 36 -52 26 34 14 122 -17 122 -17 0 -19 -8
-19 -70z"/>
<path d="M8866 2873 c-3 -16 -4 -37 -2 -48 3 -11 5 -30 5 -42 1 -16 7 -23 21
-23 23 0 36 51 26 105 -9 44 -41 49 -50 8z"/>
<path d="M9070 2870 c0 -25 4 -30 25 -30 21 0 25 5 25 30 0 25 -4 30 -25 30
-21 0 -25 -5 -25 -30z"/>
<path d="M3574 2455 c-10 -53 3 -105 26 -105 14 0 21 10 26 35 10 53 -3 105
-26 105 -14 0 -21 -10 -26 -35z"/>
<path d="M3996 2444 c-10 -25 -7 -34 9 -34 9 0 15 9 15 25 0 28 -15 34 -24 9z"/>
<path d="M5000 2465 c0 -20 5 -25 25 -25 20 0 25 5 25 25 0 20 -5 25 -25 25
-20 0 -25 -5 -25 -25z"/>
<path d="M5405 2473 c2 -10 4 -21 4 -25 1 -5 10 -8 21 -8 15 0 20 7 20 25 0
20 -5 25 -24 25 -18 0 -23 -5 -21 -17z"/>
<path d="M5814 2455 c-8 -46 3 -105 20 -105 16 0 33 44 31 80 -4 64 -40 82
-51 25z"/>
<path d="M6020 2465 c0 -18 5 -25 20 -25 15 0 20 7 20 25 0 18 -5 25 -20 25
-15 0 -20 -7 -20 -25z"/>
<path d="M6440 2435 c0 -14 4 -25 10 -25 5 0 9 11 8 25 -1 14 -6 25 -10 25 -4
0 -8 -11 -8 -25z"/>
<path d="M8660 2460 c0 -25 4 -30 25 -30 21 0 25 5 25 30 0 25 -4 30 -25 30
-21 0 -25 -5 -25 -30z"/>
<path d="M5437 1653 c-10 -9 -8 -841 1 -847 11 -7 838 -9 849 -3 5 3 66 -24
136 -59 70 -36 132 -62 139 -58 6 4 8 3 5 -3 -3 -5 28 -26 69 -46 l74 -37 0
420 0 419 -30 16 c-17 9 -36 13 -43 9 -7 -4 -8 -3 -4 1 4 5 -75 51 -175 102
l-183 92 -416 1 c-229 0 -419 -3 -422 -7z m263 -221 c0 -79 17 -114 47 -96 14
9 19 27 21 88 3 68 5 76 22 76 18 0 20 -7 20 -84 0 -64 -4 -88 -16 -100 -38
-39 -106 -28 -124 20 -6 14 -10 57 -10 95 0 62 2 69 20 69 18 0 20 -7 20 -68z
m274 1 l35 -68 1 68 c0 60 2 67 20 67 19 0 20 -7 20 -105 l0 -105 -25 0 c-20
0 -31 12 -59 68 l-35 67 -1 -67 c0 -61 -2 -68 -20 -68 -19 0 -20 7 -20 105 l0
105 25 0 c20 0 31 -12 59 -67z m-316 -279 c23 -16 30 -58 11 -70 -8 -4 -8 -9
0 -17 6 -6 11 -26 11 -45 0 -29 -5 -35 -36 -48 -20 -8 -50 -14 -68 -12 l-31 3
-3 103 -3 102 48 0 c28 0 58 -7 71 -16z m247 -9 c33 -32 36 -124 5 -155 -57
-57 -149 -26 -164 55 -8 40 13 98 41 114 34 20 92 13 118 -14z m161 -10 l18
-34 20 34 c14 24 27 35 43 35 29 0 29 -3 -2 -48 -31 -45 -31 -57 0 -107 30
-49 31 -55 5 -55 -13 0 -28 13 -41 35 -23 39 -32 38 -54 -6 -9 -17 -24 -29
-35 -29 -26 0 -25 12 5 60 14 22 25 44 25 50 0 6 -11 28 -25 50 -31 49 -31 50
-2 50 17 0 29 -10 43 -35z m549 -465 c3 -6 -1 -7 -9 -4 -18 7 -21 14 -7 14 6
0 13 -4 16 -10z"/>
<path d="M5580 1111 c0 -16 6 -21 26 -21 33 0 30 33 -4 38 -17 3 -22 -2 -22
-17z"/>
<path d="M5580 1030 c0 -17 5 -21 28 -18 16 2 27 9 27 18 0 9 -11 16 -27 18
-23 3 -28 -1 -28 -18z"/>
<path d="M5813 1118 c-24 -28 -19 -94 7 -108 45 -24 83 35 58 88 -14 30 -49
40 -65 20z"/>
<path d="M5429 780 c-1 -5 -2 -16 -3 -22 -1 -7 -5 -16 -11 -20 -6 -5 -3 -8 6
-8 11 0 16 9 16 30 0 29 -5 41 -8 20z"/>
<path d="M6243 762 c1 -14 5 -18 11 -12 7 7 6 14 -1 21 -9 9 -12 7 -10 -9z"/>
<path d="M5415 709 c-4 -6 -5 -12 -2 -15 2 -3 7 2 10 11 7 17 1 20 -8 4z"/>
<path d="M6166 708 c3 -5 10 -6 15 -3 13 9 11 12 -6 12 -8 0 -12 -4 -9 -9z"/>
<path d="M6193 663 c0 -27 0 -26 15 3 8 16 8 21 -2 21 -8 0 -13 -11 -13 -24z"/>
<path d="M5367 653 c-4 -3 -7 -13 -7 -21 0 -18 13 -7 16 13 2 17 1 18 -9 8z"/>
<path d="M5410 650 c0 -6 7 -10 15 -10 8 0 15 2 15 4 0 2 -7 6 -15 10 -8 3
-15 1 -15 -4z"/>
<path d="M6167 624 c6 -15 23 -19 23 -5 0 5 -7 11 -14 14 -10 4 -13 1 -9 -9z"/>
<path d="M5348 583 c5 -21 7 -23 10 -9 2 10 0 22 -6 28 -6 6 -7 0 -4 -19z"/>
<path d="M5425 570 c-3 -5 -1 -10 4 -10 6 0 11 5 11 10 0 6 -2 10 -4 10 -3 0
-8 -4 -11 -10z"/>
<path d="M6126 523 c-6 -14 -5 -15 5 -6 7 7 10 15 7 18 -3 3 -9 -2 -12 -12z"/>
<path d="M5300 504 c0 -8 5 -12 10 -9 6 4 8 11 5 16 -9 14 -15 11 -15 -7z"/>
<path d="M5330 502 c0 -5 7 -9 15 -9 8 0 15 4 15 9 0 4 -7 8 -15 8 -8 0 -15
-4 -15 -8z"/>
<path d="M6096 479 c-16 -15 -17 -22 -7 -32 10 -9 11 -8 5 7 -5 13 -4 17 3 13
6 -4 14 0 17 9 9 24 4 24 -18 3z"/>
<path d="M5250 431 c0 -6 4 -13 10 -16 6 -3 7 1 4 9 -7 18 -14 21 -14 7z"/>
</g>
</svg>
